M48
; DRILL file {KiCad (5.1.7)-1} date 10/29/20 12:11:29
; FORMAT={-:-/ absolute / inch / decimal}
; #@! TF.CreationDate,2020-10-29T12:11:29+01:00
; #@! TF.GenerationSoftware,Kicad,Pcbnew,(5.1.7)-1
; #@! TF.FileFunction,Plated,1,2,PTH
FMAT,2
INCH
T1C0.0315
T2C0.0394
%
G90
G05
T1
X5.47Y-2.96
X5.7904Y-3.4339
X5.8904Y-3.4339
X5.9904Y-3.4339
X6.0904Y-3.4339
X6.39Y-2.96
X6.39Y-3.36
X5.47Y-2.43
X5.47Y-2.83
X6.39Y-2.43
X6.39Y-2.83
X5.51Y-3.51
X5.51Y-3.81
X5.84Y-3.62
X6.0369Y-3.62
X5.47Y-3.36
T2
X5.79Y-3.83
X5.89Y-3.83
X5.99Y-3.83
X6.09Y-3.83
X6.4Y-3.55
X6.4Y-3.65
X6.4Y-3.75
T0
M30
